<svg width="64" height="64" viewBox="0 0 64 64" fill="none" xmlns="http://www.w3.org/2000/svg">
  <rect x="4" y="4" width="56" height="56" rx="14" fill="#090F24"/>
  <path
    d="M32 11L47 18C47 18 45.9 27.2 45 34.4C44.3 40.1 39.8 44.8 32 51C24.2 44.8 19.7 40.1 19 34.4C18.1 27.2 17 18 17 18L32 11Z"
    fill="#4CC9F0"
  />
  <path
    d="M32 20L39.3 23.8C39.3 23.8 38.6 29 38.1 33.1C37.8 36 35.6 38.5 32 41.4C28.4 38.5 26.2 36 25.9 33.1C25.4 29 24.7 23.8 24.7 23.8L32 20Z"
    fill="#090F24"
  />
  <path
    d="M32 25L35.4 26.8L34.9 31.4C34.7 33 33.7 34.3 32 35.7C30.3 34.3 29.3 33 29.1 31.4L28.6 26.8L32 25Z"
    fill="#6B6DF4"
  />
</svg>

